# xmcd
# 
# Track frame offsets:
#     150
#     15872
#     29730
#     42437
#     57877
#     79950
#     90952
#     108160
#     133282
#     150712
#     168782
#     188215
# 
# Disc length: 2745
# 
# Revision: 8
# Processed by: cddbd v1.5.2PL0 Copyright (c) Steve Scherf et al.
# Submitted via: BonkEnc v1.0
# 
DISCID=8f0ab70c
DTITLE=Toby Keith - The Best Of Toby Keith (20th Century Masters The Millennium Collection)
DYEAR=2003
DGENRE=Country
TTITLE0=Should've Been A Cowboy
TTITLE1=He Ain't Worth Missing
TTITLE2=A Little Less Talk And A Lot More Action
TTITLE3=Wish I Didn't Know Now
TTITLE4=Who's That Man
TTITLE5=You Ain't Much Fun
TTITLE6=Does That Blue Moon Ever Shine On You
TTITLE7=A Woman's Touch
TTITLE8=Me Too
TTITLE9=I'm So Happy I Can't Stop Crying (With Sting)
TTITLE10=We Were In Love
TTITLE11=Dream Walkin'
EXTD=YEAR: 2003
EXTT0=
EXTT1=
EXTT2=
EXTT3=
EXTT4=
EXTT5=
EXTT6=
EXTT7=
EXTT8=
EXTT9=
EXTT10=
EXTT11=
PLAYORDER=
